{"title":"Red.Riding.Hood.2011.R5.XViD.AC3-BiONiK","uid":6420419,"size":893336834,"categoryP":"video","categoryS":"movies","magnet":"?xt=urn:btih:9dc28ac65d2e0196efda9b798dc58006ba4b8179&amp;dn=Red.Riding.Hood.2011.R5.XViD.AC3-BiONiK&amp;tr=udp%3A%2F%2Ftracker.openbittorrent.com%3A80&amp;tr=udp%3A%2F%2Fopen.demonii.com%3A1337&amp;tr=udp%3A%2F%2Ftracker.coppersurfer.tk%3A6969&amp;tr=udp%3A%2F%2Fexodus.desync.com%3A6969","seeders":0,"leechers":1,"uploader":"sceneline","files":64,"time":1306298053,"description":"- &lt;a href=&quot;\nhttp://www.Speed.Cd&quot; rel=&quot;nofollow&quot; target=&quot;_NEW&quot;&gt;\nhttp://www.Speed.Cd&lt;/a&gt; \n       &lt;a href=&quot;\nhttp://www.Speed.Cd&quot; rel=&quot;nofollow&quot; target=&quot;_NEW&quot;&gt;\nhttp://www.Speed.Cd&lt;/a&gt;       the fast  and The Hottest Private Tracker on the net\n\n(((--Registration will be open on june every weekend--)))\n\nPlease Seed back to make the speed Faster!!!\n\nand don't forget to visit      ...... http://www.Speed.Cd..........\n-STORYLINE\n\nSet in a medieval village that is haunted by a werewolf, a young girl falls for an orphaned woodcutter, much to her family's displeasure.\n\nCAST\n\nGary Oldman\t ...\tFather Solomon\nBilly Burke\t ...\tCesaire\nShiloh Fernandez\t ...\t\nPeter\nMax Irons\t ...\tHenry Lazar\nVirginia Madsen\t ...\tSuzette\nLukas Haas\t ...\tFather Auguste\nJulie Christie\t ...\tGrandmother\n\nINFO\n\nFile size : 834 MiB\nDuration : 1h 39mn\nOverall bit rate : 1 169 Kbps\n\nVideo\nID : 1\nFormat : xvid\nCodec ID : xvid\nDuration : 1h 39mn\nBit rate : 954 Kbps\nWidth : 640 pixels\nHeight : 272 pixels\nDisplay aspect ratio : 2.35:1\nFrame rate : 29.970 fps\nBits/(Pixel*Frame) : 0.183\nStream size : 680 MiB (82%)\n\nAudio\nID : 2\nFormat : AC-3\nFormat/Info : Audio Coding 3\nMode extension : CM (complete main)\nMuxing mode : Header stripping\nCodec ID : A_AC3\nDuration : 1h 39mn\nBit rate mode : Constant\nBit rate : 192 Kbps\nChannel(s) : 2 channels\nChannel positions : Front: L R\nSampling rate : 44.1 KHz\nBit depth : 16 bits\nCompression mode : Lossy\nStream size : 137 MiB (16%)","torrent":{"xt":"urn:btih:9dc28ac65d2e0196efda9b798dc58006ba4b8179","amp;dn":"Red.Riding.Hood.2011.R5.XViD.AC3-BiONiK","amp;tr":["udp%3A%2F%2Ftracker.openbittorrent.com%3A80","udp%3A%2F%2Fopen.demonii.com%3A1337","udp%3A%2F%2Ftracker.coppersurfer.tk%3A6969","udp%3A%2F%2Fexodus.desync.com%3A6969"],"infoHash":"9dc28ac65d2e0196efda9b798dc58006ba4b8179","infoHashBuffer":{"type":"Buffer","data":[157,194,138,198,93,46,1,150,239,218,155,121,141,197,128,6,186,75,129,121]},"announce":[],"urlList":[]}}